<svg xmlns="http://www.w3.org/2000/svg" viewBox="0 0 320 200" fill="none">
  <rect width="320" height="200" rx="8" fill="#f8f7f4"/>
  <!-- Sidebar filters -->
  <rect x="16" y="16" width="80" height="168" rx="6" fill="#ffffff" stroke="#e5e1d8" stroke-width="1"/>
  <rect x="28" y="28" width="56" height="8" rx="4" fill="#c4bfb5"/>
  <rect x="28" y="44" width="40" height="6" rx="3" fill="#e5e1d8"/>
  <rect x="28" y="56" width="48" height="6" rx="3" fill="#e5e1d8"/>
  <rect x="28" y="68" width="36" height="6" rx="3" fill="#e5e1d8"/>
  <rect x="28" y="88" width="56" height="8" rx="4" fill="#c4bfb5"/>
  <rect x="28" y="104" width="40" height="6" rx="3" fill="#e5e1d8"/>
  <rect x="28" y="116" width="48" height="6" rx="3" fill="#e5e1d8"/>
  <!-- Product grid -->
  <rect x="108" y="16" width="92" height="80" rx="6" fill="#ffffff" stroke="#e5e1d8" stroke-width="1"/>
  <rect x="116" y="24" width="76" height="48" rx="4" fill="#f0eee9"/>
  <rect x="116" y="78" width="48" height="6" rx="3" fill="#c4bfb5"/>
  <rect x="116" y="88" width="32" height="6" rx="3" fill="#e5e1d8"/>

  <rect x="212" y="16" width="92" height="80" rx="6" fill="#ffffff" stroke="#e5e1d8" stroke-width="1"/>
  <rect x="220" y="24" width="76" height="48" rx="4" fill="#f0eee9"/>
  <rect x="220" y="78" width="48" height="6" rx="3" fill="#c4bfb5"/>
  <rect x="220" y="88" width="32" height="6" rx="3" fill="#e5e1d8"/>

  <rect x="108" y="104" width="92" height="80" rx="6" fill="#ffffff" stroke="#e5e1d8" stroke-width="1"/>
  <rect x="116" y="112" width="76" height="48" rx="4" fill="#f0eee9"/>
  <rect x="116" y="166" width="48" height="6" rx="3" fill="#c4bfb5"/>
  <rect x="116" y="176" width="32" height="6" rx="3" fill="#e5e1d8"/>

  <rect x="212" y="104" width="92" height="80" rx="6" fill="#ffffff" stroke="#e5e1d8" stroke-width="1"/>
  <rect x="220" y="112" width="76" height="48" rx="4" fill="#f0eee9"/>
  <rect x="220" y="166" width="48" height="6" rx="3" fill="#c4bfb5"/>
  <rect x="220" y="176" width="32" height="6" rx="3" fill="#e5e1d8"/>
  <!-- Label -->
  <text x="160" y="195" font-family="sans-serif" font-size="10" fill="#a09890" text-anchor="middle">Catalog — Filtros lateral</text>
</svg>
