<svg xmlns="http://www.w3.org/2000/svg" viewBox="0 0 320 200" fill="none">
  <rect width="320" height="200" rx="8" fill="#f8f7f4"/>
  <!-- Top filter bar -->
  <rect x="16" y="16" width="288" height="28" rx="6" fill="#ffffff" stroke="#e5e1d8" stroke-width="1"/>
  <rect x="28" y="26" width="40" height="8" rx="4" fill="#c4bfb5"/>
  <rect x="80" y="26" width="40" height="8" rx="4" fill="#c4bfb5"/>
  <rect x="132" y="26" width="40" height="8" rx="4" fill="#c4bfb5"/>
  <rect x="184" y="26" width="40" height="8" rx="4" fill="#c4bfb5"/>
  <!-- Product grid -->
  <rect x="16" y="56" width="66" height="64" rx="6" fill="#ffffff" stroke="#e5e1d8" stroke-width="1"/>
  <rect x="22" y="62" width="54" height="36" rx="4" fill="#f0eee9"/>
  <rect x="22" y="102" width="36" height="6" rx="3" fill="#c4bfb5"/>
  <rect x="22" y="112" width="24" height="6" rx="3" fill="#e5e1d8"/>

  <rect x="92" y="56" width="66" height="64" rx="6" fill="#ffffff" stroke="#e5e1d8" stroke-width="1"/>
  <rect x="98" y="62" width="54" height="36" rx="4" fill="#f0eee9"/>
  <rect x="98" y="102" width="36" height="6" rx="3" fill="#c4bfb5"/>
  <rect x="98" y="112" width="24" height="6" rx="3" fill="#e5e1d8"/>

  <rect x="168" y="56" width="66" height="64" rx="6" fill="#ffffff" stroke="#e5e1d8" stroke-width="1"/>
  <rect x="174" y="62" width="54" height="36" rx="4" fill="#f0eee9"/>
  <rect x="174" y="102" width="36" height="6" rx="3" fill="#c4bfb5"/>
  <rect x="174" y="112" width="24" height="6" rx="3" fill="#e5e1d8"/>

  <rect x="244" y="56" width="60" height="64" rx="6" fill="#ffffff" stroke="#e5e1d8" stroke-width="1"/>
  <rect x="250" y="62" width="48" height="36" rx="4" fill="#f0eee9"/>
  <rect x="250" y="102" width="32" height="6" rx="3" fill="#c4bfb5"/>
  <rect x="250" y="112" width="20" height="6" rx="3" fill="#e5e1d8"/>

  <rect x="16" y="128" width="66" height="64" rx="6" fill="#ffffff" stroke="#e5e1d8" stroke-width="1"/>
  <rect x="22" y="134" width="54" height="36" rx="4" fill="#f0eee9"/>
  <rect x="22" y="174" width="36" height="6" rx="3" fill="#c4bfb5"/>
  <rect x="22" y="184" width="24" height="6" rx="3" fill="#e5e1d8"/>

  <rect x="92" y="128" width="66" height="64" rx="6" fill="#ffffff" stroke="#e5e1d8" stroke-width="1"/>
  <rect x="98" y="134" width="54" height="36" rx="4" fill="#f0eee9"/>
  <rect x="98" y="174" width="36" height="6" rx="3" fill="#c4bfb5"/>
  <rect x="98" y="184" width="24" height="6" rx="3" fill="#e5e1d8"/>
  <!-- Label -->
  <text x="160" y="195" font-family="sans-serif" font-size="10" fill="#a09890" text-anchor="middle">Catalog — Filtros arriba</text>
</svg>
