<svg xmlns="http://www.w3.org/2000/svg" viewBox="0 0 320 200" fill="none">
  <rect width="320" height="200" rx="8" fill="#f8f7f4"/>
  <!-- Top filter bar -->
  <rect x="16" y="16" width="288" height="28" rx="6" fill="#ffffff" stroke="#e5e1d8" stroke-width="1"/>
  <rect x="28" y="26" width="40" height="8" rx="4" fill="#c4bfb5"/>
  <rect x="80" y="26" width="40" height="8" rx="4" fill="#c4bfb5"/>
  <rect x="132" y="26" width="40" height="8" rx="4" fill="#c4bfb5"/>
  <!-- Product grid -->
  <rect x="16" y="56" width="92" height="80" rx="6" fill="#ffffff" stroke="#e5e1d8" stroke-width="1"/>
  <rect x="24" y="64" width="76" height="48" rx="4" fill="#f0eee9"/>
  <rect x="24" y="118" width="48" height="6" rx="3" fill="#c4bfb5"/>
  <rect x="24" y="128" width="32" height="6" rx="3" fill="#e5e1d8"/>

  <rect x="116" y="56" width="92" height="80" rx="6" fill="#ffffff" stroke="#e5e1d8" stroke-width="1"/>
  <rect x="124" y="64" width="76" height="48" rx="4" fill="#f0eee9"/>
  <rect x="124" y="118" width="48" height="6" rx="3" fill="#c4bfb5"/>
  <rect x="124" y="128" width="32" height="6" rx="3" fill="#e5e1d8"/>

  <rect x="216" y="56" width="88" height="80" rx="6" fill="#ffffff" stroke="#e5e1d8" stroke-width="1"/>
  <rect x="224" y="64" width="72" height="48" rx="4" fill="#f0eee9"/>
  <rect x="224" y="118" width="44" height="6" rx="3" fill="#c4bfb5"/>
  <rect x="224" y="128" width="28" height="6" rx="3" fill="#e5e1d8"/>
  <!-- Spinner -->
  <circle cx="160" cy="168" r="10" stroke="#e5e1d8" stroke-width="2" fill="none"/>
  <path d="M160 158 A10 10 0 0 1 170 168" stroke="#c4bfb5" stroke-width="2" fill="none" stroke-linecap="round"/>
  <!-- Label -->
  <text x="160" y="195" font-family="sans-serif" font-size="10" fill="#a09890" text-anchor="middle">Catalog — Scroll infinito</text>
</svg>
