<svg xmlns="http://www.w3.org/2000/svg" viewBox="0 0 320 200" fill="none">
  <rect width="320" height="200" rx="8" fill="#F8F9FA"/>
  <rect x="16" y="14" width="90" height="10" rx="3" fill="#94A3B8"/>
  <rect x="16" y="34" width="288" height="32" rx="6" fill="white" stroke="#E2E8F0" stroke-width="1"/>
  <rect x="28" y="43" width="14" height="14" rx="3" fill="#E2E8F0"/>
  <rect x="52" y="46" width="100" height="8" rx="2" fill="#475569"/>
  <rect x="16" y="70" width="288" height="32" rx="6" fill="white" stroke="#E2E8F0" stroke-width="1"/>
  <rect x="28" y="79" width="14" height="14" rx="3" fill="#E2E8F0"/>
  <rect x="52" y="82" width="120" height="8" rx="2" fill="#475569"/>
  <rect x="16" y="106" width="288" height="32" rx="6" fill="white" stroke="#E2E8F0" stroke-width="1"/>
  <rect x="28" y="115" width="14" height="14" rx="3" fill="#E2E8F0"/>
  <rect x="52" y="118" width="80" height="8" rx="2" fill="#475569"/>
  <rect x="16" y="142" width="288" height="32" rx="6" fill="white" stroke="#E2E8F0" stroke-width="1" opacity="0.5"/>
  <rect x="28" y="151" width="14" height="14" rx="3" fill="#E2E8F0" opacity="0.5"/>
  <rect x="52" y="154" width="90" height="8" rx="2" fill="#475569" opacity="0.5"/>
  <text x="160" y="194" font-family="sans-serif" font-size="9" fill="#64748B" text-anchor="middle">Lista compacta</text>
</svg>
