<svg xmlns="http://www.w3.org/2000/svg" viewBox="0 0 320 200" fill="none">
  <rect width="320" height="200" rx="8" fill="#F8F9FA"/>
  <rect x="16" y="40" width="86" height="68" rx="6" fill="#E2E8F0"/>
  <rect x="16" y="108" width="86" height="14" rx="3" fill="#475569" opacity="0.7"/>
  <rect x="117" y="40" width="86" height="68" rx="6" fill="#E2E8F0"/>
  <rect x="117" y="108" width="86" height="14" rx="3" fill="#475569" opacity="0.7"/>
  <rect x="218" y="40" width="86" height="68" rx="6" fill="#E2E8F0"/>
  <rect x="218" y="108" width="86" height="14" rx="3" fill="#475569" opacity="0.7"/>
  <rect x="16" y="130" width="86" height="55" rx="6" fill="#E2E8F0" opacity="0.6"/>
  <rect x="117" y="130" width="86" height="55" rx="6" fill="#E2E8F0" opacity="0.6"/>
  <rect x="218" y="130" width="86" height="55" rx="6" fill="#E2E8F0" opacity="0.6"/>
  <rect x="16" y="14" width="100" height="10" rx="3" fill="#94A3B8"/>
  <rect x="120" y="14" width="60" height="10" rx="3" fill="#CBD5E1"/>
  <text x="160" y="194" font-family="sans-serif" font-size="9" fill="#64748B" text-anchor="middle">Grid de tarjetas</text>
</svg>
