<svg xmlns="http://www.w3.org/2000/svg" viewBox="0 0 320 200" fill="none">
  <rect width="320" height="200" rx="8" fill="#f8f7f4"/>
  <!-- Title placeholder -->
  <rect x="80" y="20" width="160" height="12" rx="6" fill="#d4cfc5"/>
  <!-- Accordion items -->
  <rect x="20" y="48" width="280" height="36" rx="6" fill="#ffffff" stroke="#e5e1d8" stroke-width="1"/>
  <rect x="32" y="60" width="180" height="10" rx="5" fill="#c4bfb5"/>
  <path d="M277 68 l6 6 l6-6" stroke="#a09890" stroke-width="1.5" stroke-linecap="round" stroke-linejoin="round"/>

  <rect x="20" y="90" width="280" height="36" rx="6" fill="#ffffff" stroke="#e5e1d8" stroke-width="1"/>
  <rect x="32" y="102" width="140" height="10" rx="5" fill="#c4bfb5"/>
  <path d="M277 107 l6-6 l6 6" stroke="#a09890" stroke-width="1.5" stroke-linecap="round" stroke-linejoin="round"/>
  <!-- Expanded content -->
  <rect x="32" y="118" width="240" height="6" rx="3" fill="#e5e1d8"/>
  <rect x="32" y="128" width="190" height="6" rx="3" fill="#e5e1d8"/>

  <rect x="20" y="142" width="280" height="36" rx="6" fill="#ffffff" stroke="#e5e1d8" stroke-width="1"/>
  <rect x="32" y="154" width="160" height="10" rx="5" fill="#c4bfb5"/>
  <path d="M277 159 l6 6 l6-6" stroke="#a09890" stroke-width="1.5" stroke-linecap="round" stroke-linejoin="round"/>
  <!-- Label -->
  <text x="160" y="193" font-family="sans-serif" font-size="10" fill="#a09890" text-anchor="middle">FAQ  Acordeón</text>
</svg>
