<svg xmlns="http://www.w3.org/2000/svg" viewBox="0 0 320 200" fill="none">
  <rect width="320" height="200" rx="8" fill="#f8f7f4"/>
  <!-- Title -->
  <rect x="80" y="14" width="160" height="12" rx="6" fill="#d4cfc5"/>
  <!-- Search input -->
  <rect x="20" y="36" width="280" height="34" rx="8" fill="#ffffff" stroke="#e5e1d8" stroke-width="1.5"/>
  <!-- Search icon -->
  <circle cx="40" cy="53" r="7" stroke="#c4bfb5" stroke-width="1.5"/>
  <line x1="45" y1="58" x2="49" y2="62" stroke="#c4bfb5" stroke-width="1.5" stroke-linecap="round"/>
  <rect x="54" y="49" width="140" height="8" rx="4" fill="#e5e1d8"/>
  <!-- Category tags -->
  <rect x="20" y="80" width="40" height="18" rx="9" fill="#e5deff"/>
  <rect x="66" y="80" width="52" height="18" rx="9" fill="#e5e1d8"/>
  <rect x="124" y="80" width="44" height="18" rx="9" fill="#e5e1d8"/>
  <rect x="174" y="80" width="58" height="18" rx="9" fill="#e5e1d8"/>
  <!-- Results -->
  <rect x="20" y="108" width="280" height="1" fill="#e5e1d8"/>
  <rect x="20" y="118" width="180" height="8" rx="4" fill="#c4bfb5"/>
  <rect x="20" y="130" width="240" height="6" rx="3" fill="#e5e1d8"/>
  <rect x="20" y="140" width="200" height="6" rx="3" fill="#e5e1d8"/>
  <rect x="20" y="154" width="280" height="1" fill="#e5e1d8"/>
  <rect x="20" y="163" width="160" height="8" rx="4" fill="#c4bfb5"/>
  <rect x="20" y="175" width="220" height="6" rx="3" fill="#e5e1d8"/>
  <!-- Label -->
  <text x="160" y="195" font-family="sans-serif" font-size="10" fill="#a09890" text-anchor="middle">FAQ  Buscador</text>
</svg>
