<svg xmlns="http://www.w3.org/2000/svg" viewBox="0 0 320 200" fill="none">
  <rect width="320" height="200" rx="8" fill="#f8f7f4"/>
  <!-- Title -->
  <rect x="80" y="14" width="160" height="12" rx="6" fill="#d4cfc5"/>
  <!-- Tabs -->
  <rect x="20" y="36" width="72" height="28" rx="6" fill="#1a1a1a"/>
  <rect x="98" y="36" width="72" height="28" rx="6" fill="#e5e1d8"/>
  <rect x="176" y="36" width="72" height="28" rx="6" fill="#e5e1d8"/>
  <rect x="254" y="36" width="46" height="28" rx="6" fill="#e5e1d8"/>
  <rect x="20" y="66" width="280" height="1" fill="#e5e1d8"/>
  <!-- Active tab items -->
  <rect x="20" y="76" width="280" height="1" fill="#e5e1d8"/>
  <rect x="20" y="84" width="180" height="8" rx="4" fill="#c4bfb5"/>
  <rect x="20" y="96" width="240" height="6" rx="3" fill="#e5e1d8"/>
  <rect x="20" y="106" width="200" height="6" rx="3" fill="#e5e1d8"/>

  <rect x="20" y="118" width="280" height="1" fill="#e5e1d8"/>
  <rect x="20" y="126" width="150" height="8" rx="4" fill="#c4bfb5"/>
  <rect x="20" y="138" width="220" height="6" rx="3" fill="#e5e1d8"/>
  <rect x="20" y="148" width="190" height="6" rx="3" fill="#e5e1d8"/>

  <rect x="20" y="160" width="280" height="1" fill="#e5e1d8"/>
  <rect x="20" y="168" width="170" height="8" rx="4" fill="#c4bfb5"/>
  <rect x="20" y="180" width="230" height="6" rx="3" fill="#e5e1d8"/>
  <!-- Label -->
  <text x="160" y="197" font-family="sans-serif" font-size="10" fill="#a09890" text-anchor="middle">FAQ  Por categorías</text>
</svg>
