<svg xmlns="http://www.w3.org/2000/svg" width="320" height="180" viewBox="0 0 320 180" fill="none">
  <rect width="320" height="180" fill="#F8F8F8"/>
  <!-- Header strip -->
  <rect x="0" y="0" width="320" height="4" fill="#E5E7EB"/>
  <!-- Trust strip -->
  <rect x="0" y="4" width="320" height="28" fill="#FFFFFF"/>
  <rect x="0" y="32" width="320" height="1" fill="#E5E7EB"/>
  <!-- Trust items -->
  <circle cx="28" cy="18" r="7" fill="#EEF2FF"/>
  <rect x="20" y="15" width="14" height="6" rx="1" fill="#6366F1" fill-opacity="0.5"/>
  <rect x="38" y="15" width="36" height="3" rx="1" fill="#9CA3AF"/>
  <circle cx="116" cy="18" r="7" fill="#EEF2FF"/>
  <rect x="108" y="15" width="14" height="6" rx="1" fill="#6366F1" fill-opacity="0.5"/>
  <rect x="126" y="15" width="36" height="3" rx="1" fill="#9CA3AF"/>
  <circle cx="204" cy="18" r="7" fill="#EEF2FF"/>
  <rect x="196" y="15" width="14" height="6" rx="1" fill="#6366F1" fill-opacity="0.5"/>
  <rect x="214" y="15" width="40" height="3" rx="1" fill="#9CA3AF"/>
  <circle cx="292" cy="18" r="7" fill="#EEF2FF"/>
  <rect x="284" y="15" width="14" height="6" rx="1" fill="#6366F1" fill-opacity="0.5"/>
  <!-- Body: 2+4 cols -->
  <!-- Marca (2 cols wide) -->
  <rect x="16" y="44" width="44" height="8" rx="2" fill="#9CA3AF"/>
  <rect x="16" y="56" width="60" height="3" rx="1" fill="#D1D5DB"/>
  <rect x="16" y="62" width="54" height="3" rx="1" fill="#D1D5DB"/>
  <!-- Contact -->
  <rect x="16" y="72" width="48" height="3" rx="1" fill="#D1D5DB"/>
  <rect x="16" y="78" width="44" height="3" rx="1" fill="#D1D5DB"/>
  <!-- Social -->
  <circle cx="20" cy="93" r="5" fill="#E5E7EB"/>
  <circle cx="32" cy="93" r="5" fill="#E5E7EB"/>
  <circle cx="44" cy="93" r="5" fill="#E5E7EB"/>
  <!-- 4 link columns -->
  <rect x="90" y="44" width="38" height="5" rx="1" fill="#6B7280"/>
  <rect x="90" y="54" width="32" height="3" rx="1" fill="#D1D5DB"/>
  <rect x="90" y="60" width="36" height="3" rx="1" fill="#D1D5DB"/>
  <rect x="90" y="66" width="30" height="3" rx="1" fill="#D1D5DB"/>

  <rect x="148" y="44" width="38" height="5" rx="1" fill="#6B7280"/>
  <rect x="148" y="54" width="34" height="3" rx="1" fill="#D1D5DB"/>
  <rect x="148" y="60" width="28" height="3" rx="1" fill="#D1D5DB"/>
  <rect x="148" y="66" width="36" height="3" rx="1" fill="#D1D5DB"/>

  <rect x="206" y="44" width="38" height="5" rx="1" fill="#6B7280"/>
  <rect x="206" y="54" width="30" height="3" rx="1" fill="#D1D5DB"/>
  <rect x="206" y="60" width="36" height="3" rx="1" fill="#D1D5DB"/>
  <rect x="206" y="66" width="32" height="3" rx="1" fill="#D1D5DB"/>

  <rect x="264" y="44" width="38" height="5" rx="1" fill="#6B7280"/>
  <rect x="264" y="54" width="34" height="3" rx="1" fill="#D1D5DB"/>
  <rect x="264" y="60" width="28" height="3" rx="1" fill="#D1D5DB"/>
  <!-- Divider -->
  <line x1="16" y1="112" x2="304" y2="112" stroke="#E5E7EB" stroke-width="1"/>
  <!-- Legal + copyright -->
  <rect x="16" y="120" width="48" height="3" rx="1" fill="#D1D5DB"/>
  <rect x="68" y="120" width="40" height="3" rx="1" fill="#D1D5DB"/>
  <rect x="208" y="120" width="96" height="3" rx="1" fill="#D1D5DB"/>
  <!-- Label -->
  <text x="160" y="160" text-anchor="middle" font-family="system-ui, sans-serif" font-size="10" fill="#9CA3AF" font-weight="500">Corporativo</text>
</svg>
