<svg xmlns="http://www.w3.org/2000/svg" width="320" height="180" viewBox="0 0 320 180" fill="none">
  <!-- Background -->
  <rect width="320" height="180" fill="#F8F7F4"/>
  <!-- Header bar -->
  <rect width="320" height="56" fill="#FFFFFF"/>
  <rect width="320" height="1" y="55" fill="#E5E3DF"/>
  <!-- Logo left -->
  <rect x="16" y="16" width="48" height="24" rx="4" fill="#D97706" opacity="0.15"/>
  <text x="40" y="33" font-family="serif" font-size="11" font-weight="700" fill="#D97706" text-anchor="middle">BYM</text>
  <!-- Search bar center -->
  <rect x="76" y="18" width="168" height="20" rx="10" fill="#F3F2EF" stroke="#E5E3DF" stroke-width="1"/>
  <circle cx="89" cy="28" r="5" stroke="#9CA3AF" stroke-width="1.2" fill="none"/>
  <line x1="93" y1="32" x2="96" y2="35" stroke="#9CA3AF" stroke-width="1.2" stroke-linecap="round"/>
  <rect x="102" y="24" width="80" height="8" rx="2" fill="#D1CFC8"/>
  <!-- Cart + account right -->
  <path d="M264 22 h6 l3 12 h-12 z" stroke="#9CA3AF" stroke-width="1.5" fill="none" stroke-linejoin="round"/>
  <circle cx="269" cy="36" r="1.5" fill="#9CA3AF"/>
  <circle cx="274" cy="36" r="1.5" fill="#9CA3AF"/>
  <circle cx="296" cy="25" r="5" stroke="#9CA3AF" stroke-width="1.2" fill="none"/>
  <path d="M291 35 q5-4 10 0" stroke="#9CA3AF" stroke-width="1.2" fill="none"/>
  <!-- Nav row -->
  <rect x="16" y="64" width="36" height="8" rx="2" fill="#D97706" opacity="0.3"/>
  <rect x="60" y="64" width="44" height="8" rx="2" fill="#E5E3DF"/>
  <rect x="112" y="64" width="36" height="8" rx="2" fill="#E5E3DF"/>
  <rect x="156" y="64" width="44" height="8" rx="2" fill="#E5E3DF"/>
  <rect x="208" y="64" width="36" height="8" rx="2" fill="#E5E3DF"/>
  <!-- Page content -->
  <rect x="24" y="92" width="272" height="12" rx="2" fill="#E9E7E2"/>
  <rect x="24" y="112" width="200" height="8" rx="2" fill="#E9E7E2"/>
  <rect x="24" y="128" width="240" height="8" rx="2" fill="#E9E7E2"/>
  <!-- Label -->
  <text x="160" y="165" font-family="sans-serif" font-size="10" fill="#9CA3AF" text-anchor="middle">Logo + Bºsqueda (Paridad BYM)</text>
</svg>
