<svg xmlns="http://www.w3.org/2000/svg" width="320" height="180" viewBox="0 0 320 180" fill="none">
  <!-- Background -->
  <rect width="320" height="180" fill="#F8F7F4"/>
  <!-- Header bar -->
  <rect width="320" height="56" fill="#FFFFFF"/>
  <rect width="320" height="1" y="55" fill="#E5E3DF"/>
  <!-- Search icon left -->
  <circle cx="40" cy="28" r="7" stroke="#9CA3AF" stroke-width="1.5" fill="none"/>
  <line x1="45" y1="33" x2="49" y2="37" stroke="#9CA3AF" stroke-width="1.5" stroke-linecap="round"/>
  <!-- Logo center -->
  <rect x="128" y="16" width="64" height="24" rx="4" fill="#D97706" opacity="0.15"/>
  <text x="160" y="33" font-family="serif" font-size="12" font-weight="700" fill="#D97706" text-anchor="middle">LOGO</text>
  <!-- Cart icon right -->
  <path d="M272 22 h6 l3 12 h-12 z" stroke="#9CA3AF" stroke-width="1.5" fill="none" stroke-linejoin="round"/>
  <circle cx="277" cy="36" r="1.5" fill="#9CA3AF"/>
  <circle cx="282" cy="36" r="1.5" fill="#9CA3AF"/>
  <!-- Nav row -->
  <rect x="80" y="64" width="40" height="8" rx="2" fill="#E5E3DF"/>
  <rect x="128" y="64" width="40" height="8" rx="2" fill="#E5E3DF"/>
  <rect x="176" y="64" width="40" height="8" rx="2" fill="#E5E3DF"/>
  <rect x="224" y="64" width="40" height="8" rx="2" fill="#E5E3DF"/>
  <!-- Page content placeholder -->
  <rect x="24" y="92" width="272" height="12" rx="2" fill="#E9E7E2"/>
  <rect x="24" y="112" width="200" height="8" rx="2" fill="#E9E7E2"/>
  <rect x="24" y="128" width="240" height="8" rx="2" fill="#E9E7E2"/>
  <!-- Label -->
  <text x="160" y="165" font-family="sans-serif" font-size="10" fill="#9CA3AF" text-anchor="middle">Logo Centrado</text>
</svg>
