<svg xmlns="http://www.w3.org/2000/svg" width="320" height="180" viewBox="0 0 320 180">
  <rect width="320" height="180" fill="#f5f5f0" rx="8"/>
  <rect x="16" y="16" width="288" height="148" fill="#2a2a24" rx="6"/>
  <rect x="16" y="64" width="288" height="100" fill="#1a1a14" opacity="0.65"/>
  <rect x="32" y="72" width="200" height="14" fill="#f5f5f0" rx="3" opacity="0.95"/>
  <rect x="32" y="94" width="140" height="9" fill="#f5f5f0" rx="3" opacity="0.65"/>
  <rect x="32" y="112" width="64" height="14" fill="#ffffff" rx="7" opacity="0.2"/>
  <rect x="102" y="112" width="60" height="14" fill="#ffffff" rx="7" opacity="0.2"/>
  <rect x="168" y="112" width="72" height="14" fill="#ffffff" rx="7" opacity="0.2"/>
  <circle cx="44" cy="119" r="4" fill="#ffffff" opacity="0.5"/>
  <circle cx="114" cy="119" r="4" fill="#ffffff" opacity="0.5"/>
  <circle cx="180" cy="119" r="4" fill="#ffffff" opacity="0.5"/>
  <rect x="32" y="134" width="80" height="18" fill="#d97706" rx="4"/>
  <rect x="120" y="134" width="72" height="18" fill="none" stroke="#ffffff" stroke-width="1.5" rx="4" opacity="0.5"/>
  <text x="160" y="173" text-anchor="middle" font-family="system-ui,sans-serif" font-size="11" fill="#6b6b65" font-weight="500">Commerce</text>
</svg>
