<svg xmlns="http://www.w3.org/2000/svg" viewBox="0 0 320 200" fill="none">
  <rect width="320" height="200" rx="8" fill="#f8f7f4"/>
  <!-- Gallery placeholder -->
  <rect x="20" y="20" width="130" height="130" rx="6" fill="#e5e1d8"/>
  <rect x="30" y="30" width="110" height="110" rx="4" fill="#d4cfc5"/>
  <!-- Thumbnails -->
  <rect x="20" y="158" width="38" height="28" rx="4" fill="#e5e1d8"/>
  <rect x="64" y="158" width="38" height="28" rx="4" fill="#e5e1d8"/>
  <rect x="108" y="158" width="38" height="28" rx="4" fill="#e5e1d8"/>
  <!-- Specs column -->
  <rect x="165" y="24" width="135" height="12" rx="6" fill="#c4bfb5"/>
  <rect x="165" y="44" width="90" height="8" rx="4" fill="#d4cfc5"/>
  <rect x="165" y="58" width="120" height="8" rx="4" fill="#d4cfc5"/>
  <rect x="165" y="78" width="80" height="14" rx="4" fill="#a09890"/>
  <rect x="165" y="100" width="135" height="28" rx="5" fill="#8c4319"/>
  <rect x="210" y="112" width="45" height="4" rx="2" fill="#fffaf2"/>
  <rect x="165" y="140" width="135" height="46" rx="6" fill="#ffffff" stroke="#e5e1d8" stroke-width="1"/>
  <rect x="175" y="150" width="60" height="6" rx="3" fill="#c4bfb5"/>
  <rect x="175" y="162" width="50" height="6" rx="3" fill="#c4bfb5"/>
  <rect x="175" y="174" width="70" height="6" rx="3" fill="#c4bfb5"/>
  <!-- Label -->
  <text x="160" y="193" font-family="sans-serif" font-size="10" fill="#a09890" text-anchor="middle">ProductDetail — Galería + Specs</text>
</svg>
