<svg width="240" height="160" viewBox="0 0 240 160" fill="none" xmlns="http://www.w3.org/2000/svg">
  <rect width="240" height="160" rx="20" fill="#F8FAFC"/>
  <rect x="18" y="20" width="130" height="106" rx="24" fill="white" stroke="#FCD34D" stroke-opacity="0.72"/>
  <rect x="30" y="32" width="106" height="58" rx="18" fill="url(#paint0_linear)"/>
  <rect x="30" y="100" width="36" height="8" rx="4" fill="#F59E0B"/>
  <rect x="30" y="114" width="64" height="10" rx="5" fill="#0F172A"/>
  <rect x="102" y="110" width="34" height="14" rx="7" fill="#FBBF24"/>
  <rect x="160" y="26" width="60" height="44" rx="18" fill="white" stroke="#CBD5E1"/>
  <rect x="170" y="36" width="18" height="18" rx="9" fill="#E2E8F0"/>
  <rect x="194" y="38" width="18" height="6" rx="3" fill="#64748B"/>
  <rect x="194" y="50" width="22" height="8" rx="4" fill="#0F172A"/>
  <rect x="194" y="60" width="18" height="8" rx="4" fill="#FBBF24"/>
  <rect x="160" y="78" width="60" height="44" rx="18" fill="white" stroke="#CBD5E1"/>
  <rect x="170" y="88" width="18" height="18" rx="9" fill="#E2E8F0"/>
  <rect x="194" y="90" width="18" height="6" rx="3" fill="#64748B"/>
  <rect x="194" y="102" width="22" height="8" rx="4" fill="#0F172A"/>
  <rect x="194" y="112" width="18" height="8" rx="4" fill="#FBBF24"/>
  <text x="120" y="148" font-family="system-ui, sans-serif" font-size="9" fill="#64748B" text-anchor="middle">product-grid — spotlight-carousel</text>
  <defs>
    <linearGradient id="paint0_linear" x1="30" y1="32" x2="136" y2="90" gradientUnits="userSpaceOnUse">
      <stop stop-color="#FEF3C7"/>
      <stop offset="1" stop-color="#CBD5E1"/>
    </linearGradient>
  </defs>
</svg>
