<svg xmlns="http://www.w3.org/2000/svg" viewBox="0 0 320 200" fill="none">
  <rect width="320" height="200" rx="8" fill="#f8f7f4"/>
  <!-- Gallery placeholder -->
  <rect x="20" y="20" width="120" height="120" rx="6" fill="#e5e1d8"/>
  <rect x="35" y="45" width="90" height="70" rx="4" fill="#d4cfc5"/>
  <!-- Title + price -->
  <rect x="155" y="20" width="145" height="10" rx="5" fill="#c4bfb5"/>
  <rect x="155" y="36" width="80" height="10" rx="5" fill="#a09890"/>
  <!-- CTA -->
  <rect x="155" y="54" width="100" height="22" rx="5" fill="#8c4319"/>
  <!-- Accordions -->
  <rect x="155" y="88" width="145" height="28" rx="6" fill="#ffffff" stroke="#e5e1d8" stroke-width="1"/>
  <rect x="165" y="98" width="80" height="8" rx="4" fill="#c4bfb5"/>
  <path d="M285 104 l4 4 l4-4" stroke="#a09890" stroke-width="1.5" stroke-linecap="round" stroke-linejoin="round"/>

  <rect x="155" y="122" width="145" height="28" rx="6" fill="#ffffff" stroke="#e5e1d8" stroke-width="1"/>
  <rect x="165" y="132" width="100" height="8" rx="4" fill="#c4bfb5"/>
  <path d="M285 138 l4 4 l4-4" stroke="#a09890" stroke-width="1.5" stroke-linecap="round" stroke-linejoin="round"/>

  <rect x="155" y="156" width="145" height="28" rx="6" fill="#ffffff" stroke="#e5e1d8" stroke-width="1"/>
  <rect x="165" y="166" width="90" height="8" rx="4" fill="#c4bfb5"/>
  <path d="M285 172 l4 4 l4-4" stroke="#a09890" stroke-width="1.5" stroke-linecap="round" stroke-linejoin="round"/>
  <!-- Label -->
  <text x="160" y="193" font-family="sans-serif" font-size="10" fill="#a09890" text-anchor="middle">ProductDetail — Acordeón</text>
</svg>
