<svg xmlns="http://www.w3.org/2000/svg" width="240" height="160" viewBox="0 0 240 160" fill="none">
  <rect width="240" height="160" rx="8" fill="#F8F8F8"/>
  <rect x="1" y="1" width="238" height="158" rx="7" stroke="#E5E7EB" stroke-width="1"/>
  <!-- 3 cols -->
  <rect x="12" y="12" width="66" height="100" rx="4" fill="#E5E7EB"/>
  <rect x="22" y="24" width="46" height="40" rx="3" fill="#D1D5DB"/>
  <rect x="22" y="72" width="36" height="6" rx="2" fill="#9CA3AF"/>
  <rect x="22" y="82" width="24" height="6" rx="2" fill="#374151"/>
  <rect x="22" y="96" width="30" height="8" rx="2" fill="#111827"/>

  <rect x="87" y="12" width="66" height="100" rx="4" fill="#E5E7EB"/>
  <rect x="97" y="24" width="46" height="40" rx="3" fill="#D1D5DB"/>
  <rect x="97" y="72" width="36" height="6" rx="2" fill="#9CA3AF"/>
  <rect x="97" y="82" width="24" height="6" rx="2" fill="#374151"/>
  <rect x="97" y="96" width="30" height="8" rx="2" fill="#111827"/>

  <rect x="162" y="12" width="66" height="100" rx="4" fill="#E5E7EB"/>
  <rect x="172" y="24" width="46" height="40" rx="3" fill="#D1D5DB"/>
  <rect x="172" y="72" width="36" height="6" rx="2" fill="#9CA3AF"/>
  <rect x="172" y="82" width="24" height="6" rx="2" fill="#374151"/>
  <rect x="172" y="96" width="30" height="8" rx="2" fill="#111827"/>

  <text x="120" y="148" font-family="system-ui, sans-serif" font-size="9" fill="#9CA3AF" text-anchor="middle">product-grid — grid-3</text>
</svg>
