<svg xmlns="http://www.w3.org/2000/svg" width="240" height="160" viewBox="0 0 240 160" fill="none">
  <rect width="240" height="160" rx="8" fill="#F8F8F8"/>
  <rect x="1" y="1" width="238" height="158" rx="7" stroke="#E5E7EB" stroke-width="1"/>
  <!-- Masonry: 3 cols, variable heights -->
  <rect x="12" y="12" width="66" height="90" rx="4" fill="#E5E7EB"/>
  <rect x="20" y="20" width="50" height="36" rx="3" fill="#D1D5DB"/>
  <rect x="20" y="62" width="36" height="6" rx="2" fill="#9CA3AF"/>
  <rect x="20" y="72" width="24" height="6" rx="2" fill="#374151"/>
  <rect x="20" y="84" width="30" height="8" rx="2" fill="#111827"/>

  <rect x="87" y="12" width="66" height="70" rx="4" fill="#E5E7EB"/>
  <rect x="95" y="20" width="50" height="28" rx="3" fill="#D1D5DB"/>
  <rect x="95" y="54" width="36" height="6" rx="2" fill="#9CA3AF"/>
  <rect x="95" y="64" width="24" height="6" rx="2" fill="#374151"/>

  <rect x="162" y="12" width="66" height="100" rx="4" fill="#E5E7EB"/>
  <rect x="170" y="20" width="50" height="40" rx="3" fill="#D1D5DB"/>
  <rect x="170" y="66" width="36" height="6" rx="2" fill="#9CA3AF"/>
  <rect x="170" y="76" width="24" height="6" rx="2" fill="#374151"/>
  <rect x="170" y="88" width="30" height="8" rx="2" fill="#111827"/>

  <!-- second row offsets -->
  <rect x="12" y="110" width="66" height="32" rx="4" fill="#E5E7EB"/>
  <rect x="20" y="118" width="50" height="16" rx="3" fill="#D1D5DB"/>

  <rect x="87" y="90" width="66" height="52" rx="4" fill="#E5E7EB"/>
  <rect x="95" y="98" width="50" height="22" rx="3" fill="#D1D5DB"/>
  <rect x="95" y="124" width="30" height="6" rx="2" fill="#9CA3AF"/>

  <rect x="162" y="118" width="66" height="24" rx="4" fill="#E5E7EB"/>
  <rect x="170" y="126" width="50" height="10" rx="3" fill="#D1D5DB"/>

  <text x="120" y="154" font-family="system-ui, sans-serif" font-size="9" fill="#9CA3AF" text-anchor="middle">product-grid — masonry</text>
</svg>
