<svg width="240" height="160" viewBox="0 0 240 160" fill="none" xmlns="http://www.w3.org/2000/svg">
  <rect width="240" height="160" rx="20" fill="#FFF7ED"/>
  <rect x="18" y="16" width="118" height="128" rx="22" fill="white" stroke="#FCD34D" stroke-opacity="0.72"/>
  <rect x="30" y="28" width="94" height="76" rx="18" fill="url(#paint0_linear)"/>
  <rect x="30" y="114" width="46" height="10" rx="5" fill="#FBBF24"/>
  <rect x="82" y="114" width="32" height="10" rx="5" fill="#E2E8F0"/>
  <rect x="148" y="24" width="74" height="112" rx="22" fill="white" stroke="#CBD5E1"/>
  <rect x="162" y="38" width="28" height="6" rx="3" fill="#F59E0B"/>
  <rect x="162" y="52" width="42" height="8" rx="4" fill="#0F172A"/>
  <rect x="162" y="67" width="56" height="6" rx="3" fill="#94A3B8"/>
  <rect x="162" y="90" width="44" height="16" rx="8" fill="#0F172A"/>
  <rect x="162" y="114" width="48" height="10" rx="5" fill="#10B981" fill-opacity="0.18" stroke="#A7F3D0"/>
  <text x="120" y="152" font-family="system-ui, sans-serif" font-size="9" fill="#64748B" text-anchor="middle">product-card — spotlight-commerce</text>
  <defs>
    <linearGradient id="paint0_linear" x1="30" y1="28" x2="124" y2="104" gradientUnits="userSpaceOnUse">
      <stop stop-color="#FEF3C7"/>
      <stop offset="1" stop-color="#E2E8F0"/>
    </linearGradient>
  </defs>
</svg>
