<svg xmlns="http://www.w3.org/2000/svg" width="240" height="160" viewBox="0 0 240 160" fill="none">
  <rect width="240" height="160" rx="8" fill="#F8F8F8"/>
  <rect x="1" y="1" width="238" height="158" rx="7" stroke="#E5E7EB" stroke-width="1"/>
  <!-- 4 cols -->
  <rect x="8" y="12" width="48" height="80" rx="3" fill="#E5E7EB"/>
  <rect x="16" y="20" width="32" height="28" rx="2" fill="#D1D5DB"/>
  <rect x="16" y="54" width="26" height="4" rx="1" fill="#9CA3AF"/>
  <rect x="16" y="62" width="18" height="4" rx="1" fill="#374151"/>
  <rect x="16" y="72" width="22" height="6" rx="1" fill="#111827"/>

  <rect x="64" y="12" width="48" height="80" rx="3" fill="#E5E7EB"/>
  <rect x="72" y="20" width="32" height="28" rx="2" fill="#D1D5DB"/>
  <rect x="72" y="54" width="26" height="4" rx="1" fill="#9CA3AF"/>
  <rect x="72" y="62" width="18" height="4" rx="1" fill="#374151"/>
  <rect x="72" y="72" width="22" height="6" rx="1" fill="#111827"/>

  <rect x="120" y="12" width="48" height="80" rx="3" fill="#E5E7EB"/>
  <rect x="128" y="20" width="32" height="28" rx="2" fill="#D1D5DB"/>
  <rect x="128" y="54" width="26" height="4" rx="1" fill="#9CA3AF"/>
  <rect x="128" y="62" width="18" height="4" rx="1" fill="#374151"/>
  <rect x="128" y="72" width="22" height="6" rx="1" fill="#111827"/>

  <rect x="176" y="12" width="48" height="80" rx="3" fill="#E5E7EB"/>
  <rect x="184" y="20" width="32" height="28" rx="2" fill="#D1D5DB"/>
  <rect x="184" y="54" width="26" height="4" rx="1" fill="#9CA3AF"/>
  <rect x="184" y="62" width="18" height="4" rx="1" fill="#374151"/>
  <rect x="184" y="72" width="22" height="6" rx="1" fill="#111827"/>

  <text x="120" y="148" font-family="system-ui, sans-serif" font-size="9" fill="#9CA3AF" text-anchor="middle">product-grid — grid-4</text>
</svg>
