<svg xmlns="http://www.w3.org/2000/svg" width="240" height="160" viewBox="0 0 240 160" fill="none">
  <rect width="240" height="160" rx="8" fill="#F4F4F5"/>
  <!-- Image placeholder left -->
  <rect x="16" y="20" width="96" height="120" rx="6" fill="#E4E4E7"/>
  <!-- Image icon (picture frame) -->
  <rect x="40" y="52" width="48" height="36" rx="3" fill="#D4D4D8"/>
  <circle cx="52" cy="62" r="5" fill="#A1A1AA"/>
  <path d="M40 80 L56 66 L72 78 L82 70 L88 80 Z" fill="#A1A1AA"/>
  <!-- Eyebrow pill right -->
  <rect x="124" y="24" width="60" height="8" rx="4" fill="#D4D4D8"/>
  <!-- Title lines right -->
  <rect x="124" y="38" width="100" height="10" rx="3" fill="#A1A1AA"/>
  <rect x="124" y="52" width="80" height="10" rx="3" fill="#A1A1AA"/>
  <!-- Body text lines right -->
  <rect x="124" y="72" width="100" height="5" rx="2.5" fill="#D4D4D8"/>
  <rect x="124" y="82" width="100" height="5" rx="2.5" fill="#D4D4D8"/>
  <rect x="124" y="92" width="80" height="5" rx="2.5" fill="#D4D4D8"/>
  <rect x="124" y="102" width="100" height="5" rx="2.5" fill="#D4D4D8"/>
  <rect x="124" y="112" width="60" height="5" rx="2.5" fill="#D4D4D8"/>
  <!-- CTA -->
  <rect x="124" y="124" width="72" height="10" rx="5" fill="#71717A"/>
  <!-- Label -->
  <text x="120" y="8" font-family="sans-serif" font-size="7" fill="#71717A" text-anchor="middle" dominant-baseline="middle">Imagen izquierda</text>
</svg>
