<svg xmlns="http://www.w3.org/2000/svg" viewBox="0 0 200 120" width="200" height="120">
  <rect width="200" height="120" fill="#f8fafc" rx="8"/>
  <!-- Columna izquierda  card alta -->
  <rect x="8" y="8" width="57" height="100" fill="#e2e8f0" rx="5"/>
  <text x="16" y="28" font-size="12" fill="#94a3b8" font-family="Georgia, serif">"</text>
  <rect x="24" y="20" width="32" height="3" fill="#cbd5e1" rx="1.5"/>
  <rect x="24" y="26" width="26" height="3" fill="#cbd5e1" rx="1.5"/>
  <rect x="24" y="32" width="30" height="3" fill="#cbd5e1" rx="1.5"/>
  <rect x="24" y="38" width="20" height="3" fill="#cbd5e1" rx="1.5"/>
  <circle cx="16" cy="98" r="4" fill="#c7d2fe"/>
  <rect x="24" y="94" width="28" height="3" fill="#94a3b8" rx="1.5"/>
  <!-- Columna centro  card corta arriba -->
  <rect x="73" y="8" width="55" height="44" fill="#e2e8f0" rx="5"/>
  <text x="81" y="26" font-size="12" fill="#94a3b8" font-family="Georgia, serif">"</text>
  <rect x="89" y="18" width="30" height="3" fill="#cbd5e1" rx="1.5"/>
  <rect x="89" y="24" width="24" height="3" fill="#cbd5e1" rx="1.5"/>
  <circle cx="81" cy="44" r="4" fill="#c7d2fe"/>
  <rect x="89" y="40" width="26" height="3" fill="#94a3b8" rx="1.5"/>
  <!-- Columna centro  card alta abajo -->
  <rect x="73" y="58" width="55" height="54" fill="#e2e8f0" rx="5"/>
  <text x="81" y="76" font-size="12" fill="#94a3b8" font-family="Georgia, serif">"</text>
  <rect x="89" y="68" width="28" height="3" fill="#cbd5e1" rx="1.5"/>
  <rect x="89" y="74" width="34" height="3" fill="#cbd5e1" rx="1.5"/>
  <rect x="89" y="80" width="22" height="3" fill="#cbd5e1" rx="1.5"/>
  <circle cx="81" cy="104" r="4" fill="#c7d2fe"/>
  <rect x="89" y="100" width="24" height="3" fill="#94a3b8" rx="1.5"/>
  <!-- Columna derecha  card media -->
  <rect x="136" y="8" width="56" height="60" fill="#e2e8f0" rx="5"/>
  <text x="144" y="28" font-size="12" fill="#94a3b8" font-family="Georgia, serif">"</text>
  <rect x="152" y="20" width="30" height="3" fill="#cbd5e1" rx="1.5"/>
  <rect x="152" y="26" width="26" height="3" fill="#cbd5e1" rx="1.5"/>
  <rect x="152" y="32" width="32" height="3" fill="#cbd5e1" rx="1.5"/>
  <circle cx="144" cy="58" r="4" fill="#c7d2fe"/>
  <rect x="152" y="54" width="22" height="3" fill="#94a3b8" rx="1.5"/>
  <!-- Columna derecha  card corta -->
  <rect x="136" y="74" width="56" height="34" fill="#e2e8f0" rx="5"/>
  <rect x="144" y="80" width="36" height="3" fill="#cbd5e1" rx="1.5"/>
  <rect x="144" y="86" width="28" height="3" fill="#cbd5e1" rx="1.5"/>
  <circle cx="144" cy="100" r="4" fill="#c7d2fe"/>
  <!-- Label -->
  <text x="100" y="118" font-size="7" fill="#64748b" text-anchor="middle" font-family="sans-serif">Masonry</text>
</svg>
