<svg xmlns="http://www.w3.org/2000/svg" viewBox="0 0 200 120" width="200" height="120">
  <rect width="200" height="120" fill="#f8fafc" rx="8"/>
  <!-- Tarjeta 1 (arriba-izq) -->
  <rect x="10" y="10" width="84" height="46" fill="#e2e8f0" rx="5"/>
  <text x="20" y="30" font-size="12" fill="#94a3b8" font-family="Georgia, serif">"</text>
  <rect x="28" y="22" width="50" height="3" fill="#cbd5e1" rx="1.5"/>
  <rect x="28" y="28" width="38" height="3" fill="#cbd5e1" rx="1.5"/>
  <circle cx="20" cy="48" r="4" fill="#c7d2fe"/>
  <rect x="28" y="44" width="30" height="3" fill="#94a3b8" rx="1.5"/>
  <!-- Tarjeta 2 (arriba-der) -->
  <rect x="106" y="10" width="84" height="46" fill="#e2e8f0" rx="5"/>
  <text x="116" y="30" font-size="12" fill="#94a3b8" font-family="Georgia, serif">"</text>
  <rect x="124" y="22" width="50" height="3" fill="#cbd5e1" rx="1.5"/>
  <rect x="124" y="28" width="42" height="3" fill="#cbd5e1" rx="1.5"/>
  <circle cx="116" cy="48" r="4" fill="#c7d2fe"/>
  <rect x="124" y="44" width="34" height="3" fill="#94a3b8" rx="1.5"/>
  <!-- Tarjeta 3 (abajo-izq) -->
  <rect x="10" y="62" width="84" height="46" fill="#e2e8f0" rx="5"/>
  <text x="20" y="82" font-size="12" fill="#94a3b8" font-family="Georgia, serif">"</text>
  <rect x="28" y="74" width="46" height="3" fill="#cbd5e1" rx="1.5"/>
  <rect x="28" y="80" width="54" height="3" fill="#cbd5e1" rx="1.5"/>
  <circle cx="20" cy="100" r="4" fill="#c7d2fe"/>
  <rect x="28" y="96" width="28" height="3" fill="#94a3b8" rx="1.5"/>
  <!-- Tarjeta 4 (abajo-der) -->
  <rect x="106" y="62" width="84" height="46" fill="#e2e8f0" rx="5"/>
  <text x="116" y="82" font-size="12" fill="#94a3b8" font-family="Georgia, serif">"</text>
  <rect x="124" y="74" width="52" height="3" fill="#cbd5e1" rx="1.5"/>
  <rect x="124" y="80" width="36" height="3" fill="#cbd5e1" rx="1.5"/>
  <circle cx="116" cy="100" r="4" fill="#c7d2fe"/>
  <rect x="124" y="96" width="38" height="3" fill="#94a3b8" rx="1.5"/>
  <!-- Label -->
  <text x="100" y="118" font-size="7" fill="#64748b" text-anchor="middle" font-family="sans-serif">Grilla</text>
</svg>
