<svg xmlns="http://www.w3.org/2000/svg" width="280" height="160" viewBox="0 0 280 160" fill="none">
  <rect width="280" height="160" rx="8" fill="#F8FAFC"/>
  <rect x="8" y="8" width="264" height="144" rx="6" fill="#F1F5F9"/>

  <!-- Item 1 -->
  <rect x="20" y="56" width="36" height="36" rx="8" fill="#EFF6FF"/>
  <path d="M31 76h-2v-8h10l2 3v5h-2m-2 0a2 2 0 0 1-4 0m4 0a2 2 0 0 0-4 0M31 71h7" stroke="#3B82F6" stroke-width="1.5" stroke-linecap="round" stroke-linejoin="round"/>
  <rect x="60" y="60" width="52" height="6" rx="3" fill="#1E293B"/>
  <rect x="60" y="72" width="72" height="4" rx="2" fill="#94A3B8"/>

  <!-- Item 2 -->
  <rect x="104" y="56" width="36" height="36" rx="8" fill="#EFF6FF"/>
  <path d="M122 64l-6 3v5c0 3.3 2.5 6.4 6 7 3.5-.6 6-3.7 6-7v-5l-6-3z" stroke="#3B82F6" stroke-width="1.5" stroke-linecap="round" stroke-linejoin="round"/>
  <rect x="144" y="60" width="52" height="6" rx="3" fill="#1E293B"/>
  <rect x="144" y="72" width="60" height="4" rx="2" fill="#94A3B8"/>

  <!-- Item 3 -->
  <rect x="188" y="56" width="36" height="36" rx="8" fill="#EFF6FF"/>
  <rect x="196" y="70" width="20" height="14" rx="2" stroke="#3B82F6" stroke-width="1.5"/>
  <path d="M200 70v-2a6 6 0 0 1 12 0v2" stroke="#3B82F6" stroke-width="1.5" stroke-linecap="round"/>
  <rect x="228" y="60" width="40" height="6" rx="3" fill="#1E293B"/>
  <rect x="228" y="72" width="44" height="4" rx="2" fill="#94A3B8"/>

  <!-- Label -->
  <text x="140" y="140" font-family="system-ui, sans-serif" font-size="10" fill="#64748B" text-anchor="middle">Inline</text>
</svg>
