<svg xmlns="http://www.w3.org/2000/svg" width="280" height="160" viewBox="0 0 280 160" fill="none">
  <rect width="280" height="160" rx="8" fill="#F8FAFC"/>
  <rect x="8" y="8" width="264" height="144" rx="6" fill="#F1F5F9"/>

  <!-- Card 1 -->
  <rect x="18" y="28" width="74" height="96" rx="8" fill="white" stroke="#E2E8F0" stroke-width="1"/>
  <rect x="28" y="40" width="28" height="28" rx="8" fill="#EFF6FF"/>
  <path d="M37 56h-2v-8h10l2 3v5h-2m-2 0a2 2 0 0 1-4 0m4 0a2 2 0 0 0-4 0M37 51h7" stroke="#3B82F6" stroke-width="1.4" stroke-linecap="round" stroke-linejoin="round"/>
  <rect x="28" y="74" width="50" height="6" rx="3" fill="#1E293B"/>
  <rect x="28" y="84" width="44" height="4" rx="2" fill="#94A3B8"/>
  <rect x="28" y="90" width="36" height="4" rx="2" fill="#94A3B8"/>

  <!-- Card 2 -->
  <rect x="103" y="28" width="74" height="96" rx="8" fill="white" stroke="#E2E8F0" stroke-width="1"/>
  <rect x="113" y="40" width="28" height="28" rx="8" fill="#EFF6FF"/>
  <path d="M127 44l-6 3v5c0 3.3 2.5 6.4 6 7 3.5-.6 6-3.7 6-7v-5l-6-3z" stroke="#3B82F6" stroke-width="1.4" stroke-linecap="round" stroke-linejoin="round"/>
  <rect x="113" y="74" width="50" height="6" rx="3" fill="#1E293B"/>
  <rect x="113" y="84" width="44" height="4" rx="2" fill="#94A3B8"/>
  <rect x="113" y="90" width="30" height="4" rx="2" fill="#94A3B8"/>

  <!-- Card 3 -->
  <rect x="188" y="28" width="74" height="96" rx="8" fill="white" stroke="#E2E8F0" stroke-width="1"/>
  <rect x="198" y="40" width="28" height="28" rx="8" fill="#EFF6FF"/>
  <rect x="206" y="54" width="12" height="10" rx="1" stroke="#3B82F6" stroke-width="1.4"/>
  <path d="M208 54v-2a4 4 0 0 1 8 0v2" stroke="#3B82F6" stroke-width="1.4" stroke-linecap="round"/>
  <rect x="198" y="74" width="50" height="6" rx="3" fill="#1E293B"/>
  <rect x="198" y="84" width="44" height="4" rx="2" fill="#94A3B8"/>
  <rect x="198" y="90" width="38" height="4" rx="2" fill="#94A3B8"/>

  <!-- Label -->
  <text x="140" y="148" font-family="system-ui, sans-serif" font-size="10" fill="#64748B" text-anchor="middle">Stacked Cards</text>
</svg>
