<svg xmlns="http://www.w3.org/2000/svg" width="280" height="160" viewBox="0 0 280 160" fill="none">
  <rect width="280" height="160" rx="8" fill="#F8FAFC"/>
  <rect x="8" y="8" width="264" height="144" rx="6" fill="#F1F5F9"/>

  <!-- Rail items -->
  <!-- Item 1 -->
  <rect x="18" y="62" width="52" height="36" rx="6" fill="white" stroke="#E2E8F0" stroke-width="1"/>
  <rect x="26" y="70" width="16" height="16" rx="4" fill="#EFF6FF"/>
  <path d="M29 80h-1v-4h5l1 1.5v2.5h-1m-1 0a1 1 0 0 1-2 0m2 0a1 1 0 0 0-2 0M29 78h3.5" stroke="#3B82F6" stroke-width="1.2" stroke-linecap="round" stroke-linejoin="round"/>
  <rect x="26" y="89" width="36" height="3" rx="1.5" fill="#1E293B"/>

  <!-- Item 2 -->
  <rect x="76" y="62" width="52" height="36" rx="6" fill="white" stroke="#E2E8F0" stroke-width="1"/>
  <rect x="84" y="70" width="16" height="16" rx="4" fill="#EFF6FF"/>
  <path d="M92 72l-3 1.5v2.5c0 1.6 1.2 3.2 3 3.5 1.8-.3 3-1.9 3-3.5v-2.5l-3-1.5z" stroke="#3B82F6" stroke-width="1.2" stroke-linecap="round" stroke-linejoin="round"/>
  <rect x="84" y="89" width="36" height="3" rx="1.5" fill="#1E293B"/>

  <!-- Item 3 -->
  <rect x="134" y="62" width="52" height="36" rx="6" fill="white" stroke="#E2E8F0" stroke-width="1"/>
  <rect x="142" y="70" width="16" height="16" rx="4" fill="#EFF6FF"/>
  <rect x="146" y="77" width="8" height="6" rx="1" stroke="#3B82F6" stroke-width="1.2"/>
  <path d="M147 77v-1a3 3 0 0 1 6 0v1" stroke="#3B82F6" stroke-width="1.2" stroke-linecap="round"/>
  <rect x="142" y="89" width="36" height="3" rx="1.5" fill="#1E293B"/>

  <!-- Item 4 (partial, showing overflow) -->
  <rect x="192" y="62" width="52" height="36" rx="6" fill="white" stroke="#E2E8F0" stroke-width="1"/>
  <rect x="200" y="70" width="16" height="16" rx="4" fill="#EFF6FF"/>
  <path d="M208 72l-1.5 1.5 1 1-1 1 1 1-1 1 1.5 1.5M208 72l1.5 1.5-1 1 1 1-1 1 1 1-1.5 1.5" stroke="#3B82F6" stroke-width="1.2" stroke-linecap="round" stroke-linejoin="round"/>
  <rect x="200" y="89" width="36" height="3" rx="1.5" fill="#1E293B"/>

  <!-- Scroll indicator -->
  <path d="M254 80h10" stroke="#CBD5E1" stroke-width="2" stroke-linecap="round"/>
  <path d="M260 76l4 4-4 4" stroke="#CBD5E1" stroke-width="1.5" stroke-linecap="round" stroke-linejoin="round"/>

  <!-- Label -->
  <text x="140" y="148" font-family="system-ui, sans-serif" font-size="10" fill="#64748B" text-anchor="middle">Rail Denso</text>
</svg>
