<svg xmlns="http://www.w3.org/2000/svg" width="280" height="160" viewBox="0 0 280 160" fill="none">
  <rect width="280" height="160" rx="8" fill="#F8FAFC"/>
  <rect x="8" y="8" width="264" height="144" rx="6" fill="#F1F5F9"/>

  <!-- Strip background -->
  <rect x="18" y="68" width="244" height="28" rx="4" fill="white" stroke="#E2E8F0" stroke-width="1"/>

  <!-- Item 1: truck icon + label -->
  <path d="M31 84h-1v-5h5.5l1.5 2v3h-1.5m-1 0a1 1 0 0 1-2 0m2 0a1 1 0 0 0-2 0M31 81h4" stroke="#3B82F6" stroke-width="1.3" stroke-linecap="round" stroke-linejoin="round"/>
  <rect x="38" y="79" width="36" height="5" rx="2.5" fill="#1E293B"/>

  <!-- Separator 1 -->
  <line x1="80" y1="74" x2="80" y2="90" stroke="#E2E8F0" stroke-width="1"/>

  <!-- Item 2: shield icon + label -->
  <path d="M91 80l-3.5 1.7v3c0 1.8 1.4 3.5 3.5 4 2.1-.5 3.5-2.2 3.5-4v-3L91 80z" stroke="#3B82F6" stroke-width="1.3" stroke-linecap="round" stroke-linejoin="round"/>
  <rect x="98" y="79" width="48" height="5" rx="2.5" fill="#1E293B"/>

  <!-- Separator 2 -->
  <line x1="152" y1="74" x2="152" y2="90" stroke="#E2E8F0" stroke-width="1"/>

  <!-- Item 3: credit-card icon + label -->
  <rect x="159" y="79" width="12" height="9" rx="1" stroke="#3B82F6" stroke-width="1.3"/>
  <path d="M160 83h10" stroke="#3B82F6" stroke-width="1.3" stroke-linecap="round"/>
  <rect x="174" y="79" width="44" height="5" rx="2.5" fill="#1E293B"/>

  <!-- Label -->
  <text x="140" y="148" font-family="system-ui, sans-serif" font-size="10" fill="#64748B" text-anchor="middle">Compact Strip</text>
</svg>
